<svg width="182" height="134" viewBox="0 0 182 134" fill="none" xmlns="http://www.w3.org/2000/svg">
<g opacity="0.8" clip-path="url(#clip0_2234_9590)">
<path d="M5.40402 39.9151C5.40402 41.3873 4.29624 42.4914 2.8192 42.4914C1.34215 42.4914 0.234375 41.3873 0.234375 39.9151C0.234375 38.443 1.34215 37.3389 2.8192 37.3389C4.29624 37.3389 5.40402 38.5657 5.40402 39.9151Z" fill="#FFCF2D"/>
<path d="M27.4367 39.9151C27.4367 41.3873 26.3289 42.4914 24.8519 42.4914C23.3749 42.4914 22.2671 41.3873 22.2671 39.9151C22.2671 38.443 23.3749 37.3389 24.8519 37.3389C26.2059 37.3389 27.4367 38.5657 27.4367 39.9151Z" fill="#FFCF2D"/>
<path d="M49.3459 39.9151C49.3459 41.3873 48.2381 42.4914 46.7611 42.4914C45.284 42.4914 44.1763 41.3873 44.1763 39.9151C44.1763 38.443 45.284 37.3389 46.7611 37.3389C48.2381 37.3389 49.3459 38.5657 49.3459 39.9151Z" fill="#FFCF2D"/>
<path d="M71.3781 39.9151C71.3781 41.3873 70.2704 42.4914 68.7933 42.4914C67.3163 42.4914 66.2085 41.3873 66.2085 39.9151C66.2085 38.443 67.3163 37.3389 68.7933 37.3389C70.2704 37.3389 71.3781 38.5657 71.3781 39.9151Z" fill="#FFCF2D"/>
<path d="M93.4109 39.9151C93.4109 41.3873 92.3031 42.4914 90.826 42.4914C89.349 42.4914 88.2412 41.3873 88.2412 39.9151C88.2412 38.443 89.349 37.3389 90.826 37.3389C92.18 37.3389 93.4109 38.5657 93.4109 39.9151Z" fill="#FFCF2D"/>
<path d="M115.444 39.9151C115.444 41.3873 114.336 42.4914 112.859 42.4914C111.382 42.4914 110.274 41.3873 110.274 39.9151C110.274 38.443 111.382 37.3389 112.859 37.3389C114.336 37.3389 115.444 38.5657 115.444 39.9151Z" fill="#FFCF2D"/>
<path d="M137.353 39.9151C137.353 41.3873 136.245 42.4914 134.768 42.4914C133.291 42.4914 132.183 41.3873 132.183 39.9151C132.183 38.443 133.291 37.3389 134.768 37.3389C136.245 37.3389 137.353 38.5657 137.353 39.9151Z" fill="#FFCF2D"/>
<path d="M159.385 39.9151C159.385 41.3873 158.278 42.4914 156.801 42.4914C155.324 42.4914 154.216 41.3873 154.216 39.9151C154.216 38.443 155.324 37.3389 156.801 37.3389C158.278 37.3389 159.385 38.5657 159.385 39.9151Z" fill="#FFCF2D"/>
<path d="M181.418 39.9151C181.418 41.3873 180.31 42.4914 178.833 42.4914C177.356 42.4914 176.249 41.3873 176.249 39.9151C176.249 38.443 177.356 37.3389 178.833 37.3389C180.187 37.3389 181.418 38.5657 181.418 39.9151Z" fill="#FFCF2D"/>
<path d="M5.40401 58.1944C5.40401 59.6666 4.29623 60.7707 2.81919 60.7707C1.34215 60.7707 0.234375 59.6666 0.234375 58.1944C0.234375 56.7223 1.34215 55.6182 2.81919 55.6182C4.29623 55.6182 5.40401 56.7223 5.40401 58.1944Z" fill="#FFCF2D"/>
<path d="M27.4367 58.1944C27.4367 59.6666 26.329 60.7707 24.8519 60.7707C23.3749 60.7707 22.2671 59.6666 22.2671 58.1944C22.2671 56.7223 23.3749 55.6182 24.8519 55.6182C26.2059 55.6182 27.4367 56.7223 27.4367 58.1944Z" fill="#FFCF2D"/>
<path d="M49.3459 58.1944C49.3459 59.6666 48.2381 60.7707 46.7611 60.7707C45.284 60.7707 44.1763 59.6666 44.1763 58.1944C44.1763 56.7223 45.284 55.6182 46.7611 55.6182C48.2381 55.6182 49.3459 56.7223 49.3459 58.1944Z" fill="#FFCF2D"/>
<path d="M71.3781 58.1944C71.3781 59.6666 70.2704 60.7707 68.7933 60.7707C67.3163 60.7707 66.2085 59.6666 66.2085 58.1944C66.2085 56.7223 67.3163 55.6182 68.7933 55.6182C70.2704 55.6182 71.3781 56.7223 71.3781 58.1944Z" fill="#FFCF2D"/>
<path d="M93.4109 58.1944C93.4109 59.6666 92.3031 60.7707 90.826 60.7707C89.349 60.7707 88.2412 59.6666 88.2412 58.1944C88.2412 56.7223 89.349 55.6182 90.826 55.6182C92.18 55.6182 93.4109 56.7223 93.4109 58.1944Z" fill="#FFCF2D"/>
<path d="M115.444 58.1944C115.444 59.6666 114.336 60.7707 112.859 60.7707C111.382 60.7707 110.274 59.6666 110.274 58.1944C110.274 56.7223 111.382 55.6182 112.859 55.6182C114.336 55.6182 115.444 56.7223 115.444 58.1944Z" fill="#FFCF2D"/>
<path d="M137.353 58.1944C137.353 59.6666 136.245 60.7707 134.768 60.7707C133.291 60.7707 132.183 59.6666 132.183 58.1944C132.183 56.7223 133.291 55.6182 134.768 55.6182C136.245 55.6182 137.353 56.7223 137.353 58.1944Z" fill="#FFCF2D"/>
<path d="M159.385 58.1944C159.385 59.6666 158.278 60.7707 156.801 60.7707C155.324 60.7707 154.216 59.6666 154.216 58.1944C154.216 56.7223 155.324 55.6182 156.801 55.6182C158.278 55.6182 159.385 56.7223 159.385 58.1944Z" fill="#FFCF2D"/>
<path d="M181.418 58.1944C181.418 59.6666 180.31 60.7707 178.833 60.7707C177.356 60.7707 176.249 59.6666 176.249 58.1944C176.249 56.7223 177.356 55.6182 178.833 55.6182C180.187 55.6182 181.418 56.7223 181.418 58.1944Z" fill="#FFCF2D"/>
<path d="M5.40402 3.47958C5.40402 4.95173 4.29624 6.05584 2.8192 6.05584C1.34215 6.05584 0.234375 4.95173 0.234375 3.47958C0.234375 2.00743 1.34215 0.90332 2.8192 0.90332C4.29624 0.90332 5.40402 2.00743 5.40402 3.47958Z" fill="#FFCF2D"/>
<path d="M27.4367 3.47958C27.4367 4.95173 26.329 6.05584 24.8519 6.05584C23.3749 6.05584 22.2671 4.95173 22.2671 3.47958C22.2671 2.00743 23.3749 0.90332 24.8519 0.90332C26.2059 0.90332 27.4367 2.00743 27.4367 3.47958Z" fill="#FFCF2D"/>
<path d="M49.3459 3.47958C49.3459 4.95173 48.2381 6.05584 46.7611 6.05584C45.284 6.05584 44.1763 4.95173 44.1763 3.47958C44.1763 2.00743 45.4071 0.90332 46.7611 0.90332C48.2381 0.90332 49.3459 2.00743 49.3459 3.47958Z" fill="#FFCF2D"/>
<path d="M71.3781 3.47958C71.3781 4.95173 70.2704 6.05584 68.7933 6.05584C67.3163 6.05584 66.2085 4.95173 66.2085 3.47958C66.2085 2.00743 67.4394 0.90332 68.7933 0.90332C70.1473 0.90332 71.3781 2.00743 71.3781 3.47958Z" fill="#FFCF2D"/>
<path d="M93.4109 3.47958C93.4109 4.95173 92.3031 6.05584 90.826 6.05584C89.349 6.05584 88.2412 4.95173 88.2412 3.47958C88.2412 2.00743 89.349 0.90332 90.826 0.90332C92.18 0.90332 93.4109 2.00743 93.4109 3.47958Z" fill="#FFCF2D"/>
<path d="M115.444 3.47958C115.444 4.95173 114.336 6.05584 112.859 6.05584C111.382 6.05584 110.274 4.95173 110.274 3.47958C110.274 2.00743 111.382 0.90332 112.859 0.90332C114.336 0.90332 115.444 2.00743 115.444 3.47958Z" fill="#FFCF2D"/>
<path d="M137.353 3.47958C137.353 4.95173 136.245 6.05584 134.768 6.05584C133.291 6.05584 132.183 4.95173 132.183 3.47958C132.183 2.00743 133.291 0.90332 134.768 0.90332C136.245 0.90332 137.353 2.00743 137.353 3.47958Z" fill="#FFCF2D"/>
<path d="M159.385 3.47958C159.385 4.95173 158.278 6.05584 156.801 6.05584C155.324 6.05584 154.216 4.95173 154.216 3.47958C154.216 2.00743 155.324 0.90332 156.801 0.90332C158.278 0.90332 159.385 2.00743 159.385 3.47958Z" fill="#FFCF2D"/>
<path d="M181.418 3.47958C181.418 4.95173 180.31 6.05584 178.833 6.05584C177.356 6.05584 176.249 4.95173 176.249 3.47958C176.249 2.00743 177.356 0.90332 178.833 0.90332C180.187 0.90332 181.418 2.00743 181.418 3.47958Z" fill="#FFCF2D"/>
<path d="M5.40402 21.7589C5.40402 23.231 4.29624 24.3351 2.8192 24.3351C1.34215 24.3351 0.234375 23.1083 0.234375 21.7589C0.234375 20.2867 1.34215 19.1826 2.8192 19.1826C4.29624 19.1826 5.40402 20.2867 5.40402 21.7589Z" fill="#FFCF2D"/>
<path d="M27.4367 21.7589C27.4367 23.231 26.3289 24.3351 24.8519 24.3351C23.3749 24.3351 22.2671 23.231 22.2671 21.7589C22.2671 20.2867 23.3749 19.1826 24.8519 19.1826C26.2059 19.1826 27.4367 20.2867 27.4367 21.7589Z" fill="#FFCF2D"/>
<path d="M49.3459 21.7589C49.3459 23.231 48.2381 24.3351 46.7611 24.3351C45.284 24.3351 44.1763 23.231 44.1763 21.7589C44.1763 20.2867 45.284 19.1826 46.7611 19.1826C48.2381 19.1826 49.3459 20.2867 49.3459 21.7589Z" fill="#FFCF2D"/>
<path d="M71.3781 21.7589C71.3781 23.231 70.2704 24.3351 68.7933 24.3351C67.3163 24.3351 66.2085 23.231 66.2085 21.7589C66.2085 20.2867 67.3163 19.1826 68.7933 19.1826C70.2704 19.1826 71.3781 20.2867 71.3781 21.7589Z" fill="#FFCF2D"/>
<path d="M93.4109 21.7589C93.4109 23.231 92.3031 24.3351 90.826 24.3351C89.349 24.3351 88.2412 23.231 88.2412 21.7589C88.2412 20.2867 89.349 19.1826 90.826 19.1826C92.18 19.1826 93.4109 20.2867 93.4109 21.7589Z" fill="#FFCF2D"/>
<path d="M115.444 21.7589C115.444 23.231 114.336 24.3351 112.859 24.3351C111.382 24.3351 110.274 23.231 110.274 21.7589C110.274 20.2867 111.382 19.1826 112.859 19.1826C114.336 19.1826 115.444 20.2867 115.444 21.7589Z" fill="#FFCF2D"/>
<path d="M137.353 21.7589C137.353 23.231 136.245 24.3351 134.768 24.3351C133.291 24.3351 132.183 23.231 132.183 21.7589C132.183 20.2867 133.291 19.1826 134.768 19.1826C136.245 19.1826 137.353 20.2867 137.353 21.7589Z" fill="#FFCF2D"/>
<path d="M159.385 21.7589C159.385 23.231 158.278 24.3351 156.801 24.3351C155.324 24.3351 154.216 23.231 154.216 21.7589C154.216 20.2867 155.324 19.1826 156.801 19.1826C158.278 19.1826 159.385 20.2867 159.385 21.7589Z" fill="#FFCF2D"/>
<path d="M181.418 21.7589C181.418 23.231 180.31 24.3351 178.833 24.3351C177.356 24.3351 176.249 23.231 176.249 21.7589C176.249 20.2867 177.356 19.1826 178.833 19.1826C180.187 19.1826 181.418 20.2867 181.418 21.7589Z" fill="#FFCF2D"/>
<path d="M5.40401 76.3507C5.40401 77.8228 4.29623 78.9269 2.81919 78.9269C1.34215 78.9269 0.234375 77.8228 0.234375 76.3507C0.234375 74.8785 1.34215 73.7744 2.81919 73.7744C4.29623 73.7744 5.40401 75.0012 5.40401 76.3507Z" fill="#FFCF2D"/>
<path d="M27.4367 76.3507C27.4367 77.8228 26.329 78.9269 24.8519 78.9269C23.3749 78.9269 22.2671 77.8228 22.2671 76.3507C22.2671 74.8785 23.3749 73.7744 24.8519 73.7744C26.2059 73.7744 27.4367 75.0012 27.4367 76.3507Z" fill="#FFCF2D"/>
<path d="M49.3459 76.3507C49.3459 77.8228 48.2381 78.9269 46.7611 78.9269C45.284 78.9269 44.1763 77.8228 44.1763 76.3507C44.1763 74.8785 45.284 73.7744 46.7611 73.7744C48.2381 73.7744 49.3459 75.0012 49.3459 76.3507Z" fill="#FFCF2D"/>
<path d="M71.3781 76.3507C71.3781 77.8228 70.2704 78.9269 68.7933 78.9269C67.3163 78.9269 66.2085 77.8228 66.2085 76.3507C66.2085 74.8785 67.3163 73.7744 68.7933 73.7744C70.2704 73.7744 71.3781 75.0012 71.3781 76.3507Z" fill="#FFCF2D"/>
<path d="M93.4109 76.3507C93.4109 77.8228 92.3031 78.9269 90.826 78.9269C89.349 78.9269 88.2412 77.8228 88.2412 76.3507C88.2412 74.8785 89.349 73.7744 90.826 73.7744C92.18 73.7744 93.4109 75.0012 93.4109 76.3507Z" fill="#FFCF2D"/>
<path d="M115.444 76.3507C115.444 77.8228 114.336 78.9269 112.859 78.9269C111.382 78.9269 110.274 77.8228 110.274 76.3507C110.274 74.8785 111.382 73.7744 112.859 73.7744C114.336 73.7744 115.444 75.0012 115.444 76.3507Z" fill="#FFCF2D"/>
<path d="M137.353 76.3507C137.353 77.8228 136.245 78.9269 134.768 78.9269C133.291 78.9269 132.183 77.8228 132.183 76.3507C132.183 74.8785 133.291 73.7744 134.768 73.7744C136.245 73.7744 137.353 75.0012 137.353 76.3507Z" fill="#FFCF2D"/>
<path d="M159.385 76.3507C159.385 77.8228 158.278 78.9269 156.801 78.9269C155.324 78.9269 154.216 77.8228 154.216 76.3507C154.216 74.8785 155.324 73.7744 156.801 73.7744C158.278 73.7744 159.385 75.0012 159.385 76.3507Z" fill="#FFCF2D"/>
<path d="M181.418 76.3507C181.418 77.8228 180.31 78.9269 178.833 78.9269C177.356 78.9269 176.249 77.8228 176.249 76.3507C176.249 74.8785 177.356 73.7744 178.833 73.7744C180.187 73.7744 181.418 75.0012 181.418 76.3507Z" fill="#FFCF2D"/>
<path d="M5.40402 94.63C5.40402 96.1021 4.29624 97.2062 2.8192 97.2062C1.34215 97.2062 0.234375 96.1021 0.234375 94.63C0.234375 93.1578 1.34215 92.0537 2.8192 92.0537C4.29624 92.0537 5.40402 93.1578 5.40402 94.63Z" fill="#FFCF2D"/>
<path d="M27.4367 94.63C27.4367 96.1021 26.329 97.2062 24.8519 97.2062C23.3749 97.2062 22.2671 96.1021 22.2671 94.63C22.2671 93.1578 23.3749 92.0537 24.8519 92.0537C26.2059 92.0537 27.4367 93.1578 27.4367 94.63Z" fill="#FFCF2D"/>
<path d="M49.3459 94.63C49.3459 96.1021 48.2381 97.2062 46.7611 97.2062C45.284 97.2062 44.1763 96.1021 44.1763 94.63C44.1763 93.1578 45.284 92.0537 46.7611 92.0537C48.2381 92.0537 49.3459 93.1578 49.3459 94.63Z" fill="#FFCF2D"/>
<path d="M68.7933 97.2062C70.2209 97.2062 71.3781 96.0528 71.3781 94.63C71.3781 93.2071 70.2209 92.0537 68.7933 92.0537C67.3658 92.0537 66.2085 93.2071 66.2085 94.63C66.2085 96.0528 67.3658 97.2062 68.7933 97.2062Z" fill="#FFCF2D"/>
<path d="M93.4109 94.63C93.4109 96.1021 92.3031 97.2062 90.826 97.2062C89.349 97.2062 88.2412 96.1021 88.2412 94.63C88.2412 93.1578 89.349 92.0537 90.826 92.0537C92.18 92.0537 93.4109 93.1578 93.4109 94.63Z" fill="#FFCF2D"/>
<path d="M115.444 94.63C115.444 96.1021 114.336 97.2062 112.859 97.2062C111.382 97.2062 110.274 96.1021 110.274 94.63C110.274 93.1578 111.382 92.0537 112.859 92.0537C114.336 92.0537 115.444 93.1578 115.444 94.63Z" fill="#FFCF2D"/>
<path d="M137.353 94.63C137.353 96.1021 136.245 97.2062 134.768 97.2062C133.291 97.2062 132.183 96.1021 132.183 94.63C132.183 93.1578 133.291 92.0537 134.768 92.0537C136.245 92.0537 137.353 93.1578 137.353 94.63Z" fill="#FFCF2D"/>
<path d="M156.801 97.2062C158.228 97.2062 159.385 96.0528 159.385 94.63C159.385 93.2071 158.228 92.0537 156.801 92.0537C155.373 92.0537 154.216 93.2071 154.216 94.63C154.216 96.0528 155.373 97.2062 156.801 97.2062Z" fill="#FFCF2D"/>
<path d="M181.418 94.63C181.418 96.1021 180.31 97.2062 178.833 97.2062C177.356 97.2062 176.249 96.1021 176.249 94.63C176.249 93.1578 177.356 92.0537 178.833 92.0537C180.187 92.0537 181.418 93.1578 181.418 94.63Z" fill="#FFCF2D"/>
<path d="M5.40402 112.909C5.40402 114.381 4.29624 115.486 2.8192 115.486C1.34215 115.486 0.234375 114.381 0.234375 112.909C0.234375 111.437 1.34215 110.333 2.8192 110.333C4.29624 110.333 5.40402 111.437 5.40402 112.909Z" fill="#FFCF2D"/>
<path d="M27.4367 112.909C27.4367 114.381 26.3289 115.486 24.8519 115.486C23.3749 115.486 22.2671 114.381 22.2671 112.909C22.2671 111.437 23.3749 110.333 24.8519 110.333C26.2059 110.333 27.4367 111.437 27.4367 112.909Z" fill="#FFCF2D"/>
<path d="M49.3459 112.909C49.3459 114.381 48.2381 115.486 46.7611 115.486C45.284 115.486 44.1763 114.381 44.1763 112.909C44.1763 111.437 45.284 110.333 46.7611 110.333C48.2381 110.333 49.3459 111.437 49.3459 112.909Z" fill="#FFCF2D"/>
<path d="M71.3781 112.909C71.3781 114.381 70.2704 115.486 68.7933 115.486C67.3163 115.486 66.2085 114.381 66.2085 112.909C66.2085 111.437 67.3163 110.333 68.7933 110.333C70.2704 110.333 71.3781 111.437 71.3781 112.909Z" fill="#FFCF2D"/>
<path d="M93.4109 112.909C93.4109 114.381 92.3031 115.486 90.826 115.486C89.349 115.486 88.2412 114.381 88.2412 112.909C88.2412 111.437 89.349 110.333 90.826 110.333C92.18 110.333 93.4109 111.437 93.4109 112.909Z" fill="#FFCF2D"/>
<path d="M115.444 112.909C115.444 114.381 114.336 115.486 112.859 115.486C111.382 115.486 110.274 114.381 110.274 112.909C110.274 111.437 111.382 110.333 112.859 110.333C114.336 110.333 115.444 111.437 115.444 112.909Z" fill="#FFCF2D"/>
<path d="M137.353 112.909C137.353 114.381 136.245 115.486 134.768 115.486C133.291 115.486 132.183 114.381 132.183 112.909C132.183 111.437 133.291 110.333 134.768 110.333C136.245 110.333 137.353 111.437 137.353 112.909Z" fill="#FFCF2D"/>
<path d="M159.385 112.909C159.385 114.381 158.278 115.486 156.801 115.486C155.324 115.486 154.216 114.381 154.216 112.909C154.216 111.437 155.324 110.333 156.801 110.333C158.278 110.333 159.385 111.437 159.385 112.909Z" fill="#FFCF2D"/>
<path d="M181.418 112.909C181.418 114.381 180.31 115.486 178.833 115.486C177.356 115.486 176.249 114.381 176.249 112.909C176.249 111.437 177.356 110.333 178.833 110.333C180.187 110.333 181.418 111.437 181.418 112.909Z" fill="#FFCF2D"/>
<path d="M5.40402 131.066C5.40402 132.538 4.29624 133.642 2.8192 133.642C1.34215 133.642 0.234375 132.538 0.234375 131.066C0.234375 129.593 1.34215 128.489 2.8192 128.489C4.29624 128.489 5.40402 129.716 5.40402 131.066Z" fill="#FFCF2D"/>
<path d="M27.4367 131.066C27.4367 132.538 26.3289 133.642 24.8519 133.642C23.3749 133.642 22.2671 132.538 22.2671 131.066C22.2671 129.593 23.3749 128.489 24.8519 128.489C26.2059 128.489 27.4367 129.716 27.4367 131.066Z" fill="#FFCF2D"/>
<path d="M49.3459 131.066C49.3459 132.538 48.2381 133.642 46.7611 133.642C45.284 133.642 44.1763 132.538 44.1763 131.066C44.1763 129.593 45.284 128.489 46.7611 128.489C48.2381 128.489 49.3459 129.716 49.3459 131.066Z" fill="#FFCF2D"/>
<path d="M71.3781 131.066C71.3781 132.538 70.2704 133.642 68.7933 133.642C67.3163 133.642 66.2085 132.538 66.2085 131.066C66.2085 129.593 67.3163 128.489 68.7933 128.489C70.2704 128.489 71.3781 129.716 71.3781 131.066Z" fill="#FFCF2D"/>
<path d="M93.4108 131.066C93.4108 132.538 92.3031 133.642 90.826 133.642C89.349 133.642 88.2412 132.538 88.2412 131.066C88.2412 129.593 89.349 128.489 90.826 128.489C92.18 128.489 93.4108 129.716 93.4108 131.066Z" fill="#FFCF2D"/>
<path d="M115.444 131.066C115.444 132.538 114.336 133.642 112.859 133.642C111.382 133.642 110.274 132.538 110.274 131.066C110.274 129.593 111.382 128.489 112.859 128.489C114.336 128.489 115.444 129.716 115.444 131.066Z" fill="#FFCF2D"/>
<path d="M137.353 131.066C137.353 132.538 136.245 133.642 134.768 133.642C133.291 133.642 132.183 132.538 132.183 131.066C132.183 129.593 133.291 128.489 134.768 128.489C136.245 128.489 137.353 129.716 137.353 131.066Z" fill="#FFCF2D"/>
<path d="M159.385 131.066C159.385 132.538 158.278 133.642 156.801 133.642C155.324 133.642 154.216 132.538 154.216 131.066C154.216 129.593 155.324 128.489 156.801 128.489C158.278 128.489 159.385 129.716 159.385 131.066Z" fill="#FFCF2D"/>
<path d="M181.418 131.066C181.418 132.538 180.31 133.642 178.833 133.642C177.356 133.642 176.249 132.538 176.249 131.066C176.249 129.593 177.356 128.489 178.833 128.489C180.187 128.489 181.418 129.716 181.418 131.066Z" fill="#FFCF2D"/>
</g>
<defs>
<clipPath id="clip0_2234_9590">
<rect width="181.184" height="132.739" fill="white" transform="translate(0.234375 0.90332)"/>
</clipPath>
</defs>
</svg>
